name C:/MyDriveSym/Projects/mobilecap/Data\Session20210910_0002\mocap\ForceDataProcessed\walking2_forces.mot
datacolumns 19
datarows 17
range 0.00000000 0.00800000
endheader 
time	R_ground_force_vx	R_ground_force_vy	R_ground_force_vz	R_ground_force_px	R_ground_force_py	R_ground_force_pz	R_ground_torque_x	R_ground_torque_y	R_ground_torque_z	L_ground_force_vx	L_ground_force_vy	L_ground_force_vz	L_ground_force_px	L_ground_force_py	L_ground_force_pz	L_ground_torque_x	L_ground_torque_y	L_ground_torque_z	
          0.00000000	        -44.69806700	        424.36710000	          3.15390700	          0.08314700	          0.00600000	         -0.21908200	          0.00000000	         -0.11752900	          0.00000000	          0.00000000	          0.00000000	          0.00000000	          0.68417800	          0.00000000	         -0.35480800	          0.00000000	          0.00000000	          0.00000000	
          0.00050000	        -45.60534700	        426.69044200	          3.01410700	          0.08314700	          0.00600000	         -0.21908200	          0.00000000	         -0.12449000	          0.00000000	          0.00000000	          0.00000000	          0.00000000	          0.68417800	          0.00000000	         -0.35480800	          0.00000000	          0.00000000	          0.00000000	
          0.00100000	        -46.51601700	        429.02626900	          2.87219500	          0.08314700	          0.00600000	         -0.21908200	          0.00000000	         -0.13150000	          0.00000000	          0.00000000	          0.00000000	          0.00000000	          0.68417800	          0.00000000	         -0.35480800	          0.00000000	          0.00000000	          0.00000000	
          0.00150000	        -47.42999400	        431.37443400	          2.72815800	          0.08314700	          0.00600000	         -0.21908200	          0.00000000	         -0.13855800	          0.00000000	          0.00000000	          0.00000000	          0.00000000	          0.68417800	          0.00000000	         -0.35480800	          0.00000000	          0.00000000	          0.00000000	
          0.00200000	        -48.34719400	        433.73479100	          2.58198000	          0.08346900	          0.00600000	         -0.21902900	          0.00000000	         -0.14566200	          0.00000000	          0.00000000	          0.00000000	          0.00000000	          0.68417800	          0.00000000	         -0.35480800	          0.00000000	          0.00000000	          0.00000000	
          0.00250000	        -49.26753300	        436.10718700	          2.43364800	          0.08378900	          0.00600000	         -0.21897600	          0.00000000	         -0.15281200	          0.00000000	          0.00000000	          0.00000000	          0.00000000	          0.68417800	          0.00000000	         -0.35480800	          0.00000000	          0.00000000	          0.00000000	
          0.00300000	        -50.19092300	        438.49146800	          2.28314600	          0.08410900	          0.00600000	         -0.21892300	          0.00000000	         -0.16000700	          0.00000000	          0.00000000	          0.00000000	          0.00000000	          0.68417800	          0.00000000	         -0.35480800	          0.00000000	          0.00000000	          0.00000000	
          0.00350000	        -51.11727500	        440.88747500	          2.13046200	          0.08442800	          0.00600000	         -0.21887000	          0.00000000	         -0.16724500	          0.00000000	          0.00000000	          0.00000000	          0.00000000	          0.68417800	          0.00000000	         -0.35480800	          0.00000000	          0.00000000	          0.00000000	
          0.00400000	        -52.04650000	        443.29504800	          1.97558100	          0.08474600	          0.00600000	         -0.21881700	          0.00000000	         -0.17452500	          0.00000000	          0.00000000	          0.00000000	          0.00000000	          0.68417800	          0.00000000	         -0.35480800	          0.00000000	          0.00000000	          0.00000000	
          0.00450000	        -52.97850700	        445.71402200	          1.81849100	          0.08506300	          0.00600000	         -0.21876400	          0.00000000	         -0.18184700	          0.00000000	          0.00000000	          0.00000000	          0.00000000	          0.68417800	          0.00000000	         -0.35480800	          0.00000000	          0.00000000	          0.00000000	
          0.00500000	        -53.91320300	        448.14423000	          1.65917800	          0.08538000	          0.00600000	         -0.21871100	          0.00000000	         -0.18920900	          0.00000000	          0.00000000	          0.00000000	          0.00000000	          0.68417800	          0.00000000	         -0.35480800	          0.00000000	          0.00000000	          0.00000000	
          0.00550000	        -54.85049500	        450.58550100	          1.49763000	          0.08569600	          0.00600000	         -0.21865800	          0.00000000	         -0.19661000	          0.00000000	          0.00000000	          0.00000000	          0.00000000	          0.68417800	          0.00000000	         -0.35480800	          0.00000000	          0.00000000	          0.00000000	
          0.00600000	        -55.79028900	        453.03766200	          1.33383500	          0.08601100	          0.00600000	         -0.21860500	          0.00000000	         -0.20404900	          0.00000000	          0.00000000	          0.00000000	          0.00000000	          0.68417800	          0.00000000	         -0.35480800	          0.00000000	          0.00000000	          0.00000000	
          0.00650000	        -56.73248800	        455.50053800	          1.16778100	          0.08632500	          0.00600000	         -0.21855100	          0.00000000	         -0.21152400	          0.00000000	          0.00000000	          0.00000000	          0.00000000	          0.68417800	          0.00000000	         -0.35480800	          0.00000000	          0.00000000	          0.00000000	
          0.00700000	        -57.67699500	        457.97395000	          0.99945700	          0.08663800	          0.00600000	         -0.21849800	          0.00000000	         -0.21903500	          0.00000000	          0.00000000	          0.00000000	          0.00000000	          0.68417800	          0.00000000	         -0.35480800	          0.00000000	          0.00000000	          0.00000000	
          0.00750000	        -58.62371200	        460.45771600	          0.82885200	          0.08695000	          0.00600000	         -0.21844400	          0.00000000	         -0.22658100	          0.00000000	          0.00000000	          0.00000000	          0.00000000	          0.68417800	          0.00000000	         -0.35480800	          0.00000000	          0.00000000	          0.00000000	
          0.00800000	        -59.57254100	        462.95165300	          0.65595400	          0.08726200	          0.00600000	         -0.21839100	          0.00000000	         -0.23416000	          0.00000000	          0.00000000	          0.00000000	          0.00000000	          0.68417800	          0.00000000	         -0.35480800	          0.00000000	          0.00000000	          0.00000000	
